<?xml version="1.0" encoding="iso-8859-1"?>
<!-- Uploaded to: SVG Repo, www.svgrepo.com, Generator: SVG Repo Mixer Tools -->
<svg version="1.1" id="Layer_1" xmlns="http://www.w3.org/2000/svg" xmlns:xlink="http://www.w3.org/1999/xlink" 
	 viewBox="0 0 512 512" xml:space="preserve">
<rect x="97.536" y="221.275" style="fill:#EAB64E;" width="300.707" height="263.274"/>
<rect x="72.581" y="249.973" style="fill:#FED159;" width="69.874" height="207.126"/>
<rect x="72.581" y="249.973" style="fill:#F6C454;" width="24.955" height="207.126"/>
<rect x="221.063" y="249.973" style="fill:#FED159;" width="69.874" height="207.126"/>
<rect x="221.063" y="249.973" style="fill:#F6C454;" width="24.955" height="207.126"/>
<rect x="369.545" y="249.973" style="fill:#FED159;" width="69.874" height="207.126"/>
<g>
	<rect x="369.545" y="249.973" style="fill:#F6C454;" width="24.955" height="207.126"/>
	<rect x="72.581" y="249.973" style="fill:#F6C454;" width="69.874" height="29.946"/>
	<rect x="221.063" y="249.973" style="fill:#F6C454;" width="69.874" height="29.946"/>
	<rect x="369.545" y="249.973" style="fill:#F6C454;" width="69.874" height="29.946"/>
</g>
<g>
	<rect x="36.397" y="455.851" style="fill:#FED159;" width="439.207" height="28.698"/>
	<rect x="10.261" y="483.302" style="fill:#FED159;" width="491.475" height="28.698"/>
	<rect x="36.397" y="194.449" style="fill:#FED159;" width="439.207" height="57.396"/>
</g>
<rect x="36.397" y="175.733" style="fill:#F6C454;" width="439.207" height="42.423"/>
<polygon style="fill:#FED159;" points="256,0 510.637,144.785 510.637,196.32 1.363,196.32 1.363,144.785 "/>
<circle style="fill:#F6C454;" cx="256" cy="108.978" r="49.91"/>
<circle style="fill:#FED159;" cx="256" cy="108.978" r="35.286"/>
</svg>